ffmpeg version 3.4.4-0ubuntu0.18.04.1 Copyright (c) 2000-2018 the FFmpeg developers
  built with gcc 7 (Ubuntu 7.3.0-16ubuntu3)
  configuration: --prefix=/usr --extra-version=0ubuntu0.18.04.1 --toolchain=hardened --libdir=/usr/lib/x86_64-linux-gnu --incdir=/usr/include/x86_64-linux-gnu --enable-gpl --disable-stripping --enable-avresample --enable-avisynth --enable-gnutls --enable-ladspa --enable-libass --enable-libbluray --enable-libbs2b --enable-libcaca --enable-libcdio --enable-libflite --enable-libfontconfig --enable-libfreetype --enable-libfribidi --enable-libgme --enable-libgsm --enable-libmp3lame --enable-libmysofa --enable-libopenjpeg --enable-libopenmpt --enable-libopus --enable-libpulse --enable-librubberband --enable-librsvg --enable-libshine --enable-libsnappy --enable-libsoxr --enable-libspeex --enable-libssh --enable-libtheora --enable-libtwolame --enable-libvorbis --enable-libvpx --enable-libwavpack --enable-libwebp --enable-libx265 --enable-libxml2 --enable-libxvid --enable-libzmq --enable-libzvbi --enable-omx --enable-openal --enable-opengl --enable-sdl2 --enable-libdc1394 --enable-libdrm --enable-libiec61883 --enable-chromaprint --enable-frei0r --enable-libopencv --enable-libx264 --enable-shared
  libavutil      55. 78.100 / 55. 78.100
  libavcodec     57.107.100 / 57.107.100
  libavformat    57. 83.100 / 57. 83.100
  libavdevice    57. 10.100 / 57. 10.100
  libavfilter     6.107.100 /  6.107.100
  libavresample   3.  7.  0 /  3.  7.  0
  libswscale      4.  8.100 /  4.  8.100
  libswresample   2.  9.100 /  2.  9.100
  libpostproc    54.  7.100 / 54.  7.100
Input #0, image2, from 'IMG/enlil_%03d.jpg':
  Duration: 00:00:11.20, start: 0.000000, bitrate: N/A
    Stream #0:0: Video: mjpeg, yuvj420p(pc, bt470bg/unknown/unknown), 960x600 [SAR 1:1 DAR 8:5], 15 fps, 15 tbr, 15 tbn, 15 tbc
Stream mapping:
  Stream #0:0 -> #0:0 (mjpeg (native) -> h264 (libx264))
Press [q] to stop, [?] for help
[swscaler @ 0x557057ac2ae0] deprecated pixel format used, make sure you did set range correctly
[libx264 @ 0x557057aa7340] using SAR=1/1
[libx264 @ 0x557057aa7340] using cpu capabilities: MMX2 SSE2Fast SSSE3 SSE4.2 AVX
[libx264 @ 0x557057aa7340] profile High, level 3.1
[libx264 @ 0x557057aa7340] 264 - core 152 r2854 e9a5903 - H.264/MPEG-4 AVC codec - Copyleft 2003-2017 - http://www.videolan.org/x264.html - options: cabac=1 ref=3 deblock=1:0:0 analyse=0x3:0x113 me=hex subme=7 psy=1 psy_rd=1.00:0.00 mixed_ref=1 me_range=16 chroma_me=1 trellis=1 8x8dct=1 cqm=0 deadzone=21,11 fast_pskip=1 chroma_qp_offset=-2 threads=6 lookahead_threads=1 sliced_threads=0 nr=0 decimate=1 interlaced=0 bluray_compat=0 constrained_intra=0 bframes=3 b_pyramid=2 b_adapt=1 b_bias=0 direct=1 weightb=1 open_gop=0 weightp=2 keyint=250 keyint_min=15 scenecut=40 intra_refresh=0 rc_lookahead=40 rc=crf mbtree=1 crf=20.0 qcomp=0.60 qpmin=0 qpmax=69 qpstep=4 ip_ratio=1.40 aq=1:1.00
Output #0, mp4, to 'anim.mp4':
  Metadata:
    encoder         : Lavf57.83.100
    Stream #0:0: Video: h264 (libx264) (avc1 / 0x31637661), yuv420p, 960x600 [SAR 1:1 DAR 8:5], q=-1--1, 15 fps, 15360 tbn, 15 tbc
    Metadata:
      encoder         : Lavc57.107.100 libx264
    Side data:
      cpb: bitrate max/min/avg: 0/0/0 buffer size: 0 vbv_delay: -1
frame=   67 fps=0.0 q=24.0 size=       0kB time=00:00:00.93 bitrate=   0.4kbits/s speed=1.86x    frame=  105 fps=105 q=24.0 size=     256kB time=00:00:03.46 bitrate= 605.0kbits/s speed=3.45x    frame=  144 fps= 95 q=24.0 size=     512kB time=00:00:06.06 bitrate= 691.4kbits/s speed=4.02x    frame=  168 fps= 71 q=-1.0 Lsize=    1131kB time=00:00:11.00 bitrate= 842.6kbits/s speed=4.66x    
video:1129kB audio:0kB subtitle:0kB other streams:0kB global headers:0kB muxing overhead: 0.247559%
[libx264 @ 0x557057aa7340] frame I:1     Avg QP:13.37  size: 83208
[libx264 @ 0x557057aa7340] frame P:48    Avg QP:18.31  size: 14829
[libx264 @ 0x557057aa7340] frame B:119   Avg QP:23.36  size:  3025
[libx264 @ 0x557057aa7340] consecutive B-frames:  1.8%  9.5%  5.4% 83.3%
[libx264 @ 0x557057aa7340] mb I  I16..4: 40.8% 34.3% 24.9%
[libx264 @ 0x557057aa7340] mb P  I16..4:  0.7%  2.3%  0.2%  P16..4: 12.5%  8.6%  7.8%  0.0%  0.0%    skip:68.0%
[libx264 @ 0x557057aa7340] mb B  I16..4:  0.4%  0.6%  0.0%  B16..8:  9.9%  1.9%  0.7%  direct: 3.8%  skip:82.6%  L0:45.0% L1:40.4% BI:14.5%
[libx264 @ 0x557057aa7340] 8x8 transform intra:56.4% inter:87.4%
[libx264 @ 0x557057aa7340] coded y,uvDC,uvAC intra: 30.8% 55.3% 44.1% inter: 6.7% 14.6% 9.1%
[libx264 @ 0x557057aa7340] i16 v,h,dc,p: 60% 33%  6%  1%
[libx264 @ 0x557057aa7340] i8 v,h,dc,ddl,ddr,vr,hd,vl,hu: 17% 17% 51%  2%  2%  3%  3%  3%  2%
[libx264 @ 0x557057aa7340] i4 v,h,dc,ddl,ddr,vr,hd,vl,hu: 32% 35% 16%  3%  2%  3%  3%  2%  4%
[libx264 @ 0x557057aa7340] i8c dc,h,v,p: 33% 32% 31%  5%
[libx264 @ 0x557057aa7340] Weighted P-Frames: Y:0.0% UV:0.0%
[libx264 @ 0x557057aa7340] ref P L0: 54.4% 10.5% 25.4%  9.7%
[libx264 @ 0x557057aa7340] ref B L0: 73.5% 21.7%  4.8%
[libx264 @ 0x557057aa7340] ref B L1: 93.0%  7.0%
[libx264 @ 0x557057aa7340] kb/s:825.00
